PathFileType	4	(X/Y/Z)	../Python\walking\Walking16\task.trc
DataRate	CameraRate	NumFrames	NumMarkers	Units	OrigDataRate	OrigDataStartFrame	OrigNumFrames
200.000000	200.000000	4	30	mm	200.000000	0	452
Frame#	Time	C7			RBAK			CLAV			STRN			RASI			LASI			PE01			RTH1			RTH2			RTH3			RD5M			RTOE			LTH2			LTH3			LTB2			LTB3			LHEE			LTOE			LD5M			LTB1			RTB2			RHEE			RTB3			RTB1			LTH1			LPSI			PE03			PE02			RPSI			T10			
		X1	Y1	Z1	X2	Y2	Z2	X3	Y3	Z3	X4	Y4	Z4	X5	Y5	Z5	X6	Y6	Z6	X7	Y7	Z7	X8	Y8	Z8	X9	Y9	Z9	X10	Y10	Z10	X11	Y11	Z11	X12	Y12	Z12	X13	Y13	Z13	X14	Y14	Z14	X15	Y15	Z15	X16	Y16	Z16	X17	Y17	Z17	X18	Y18	Z18	X19	Y19	Z19	X20	Y20	Z20	X21	Y21	Z21	X22	Y22	Z22	X23	Y23	Z23	X24	Y24	Z24	X25	Y25	Z25	X26	Y26	Z26	X27	Y27	Z27	X28	Y28	Z28	X29	Y29	Z29	X30	Y30	Z30	

1	0.14	-1331.4013671875	1318.659790039063	150.8311004638672	-1395.870361328125	1215.415893554688	243.0681762695314	-1213.85400390625	1216.368774414063	158.6102600097657	-1159.1884765625	1031.638916015625	161.1002960205079	-1192.709838867188	838.9823608398442	271.2454833984376	-1188.815063476563	838.6559448242192	43.18616104125978	-1383.773193359375	912.8291625976567	179.9666290283204	-1170.772827148438	553.8984985351565	304.9492797851564	-1119.349243164063	495.5306091308596	286.8925170898439	-1120.270385742188	555.301940917969	302.7223510742189	-851.085327148438	60.17685317993167	271.0352478027345	-826.9294433593755	88.17759704589847	225.1080169677736	-1362.916259765625	544.2669067382815	28.56896591186525	-1286.520629882813	556.5181274414065	22.62288284301759	-1513.992797851563	220.9472045898439	54.22049331665042	-1465.896728515625	232.9834899902345	56.14045333862308	-1609.967041015626	59.05779647827151	115.4160766601563	-1420.345825195313	25.08678436279298	116.8604736328126	-1462.211059570313	12.32129669189454	66.51528167724612	-1479.395629882813	292.2047729492189	41.87851715087892	-1036.345092773438	250.448455810547	284.1997680664064	-994.2766723632817	19.77392959594727	202.8936309814454	-993.0727539062505	229.2103576660157	270.7093811035157	-1011.813354492188	305.6731567382814	276.6714477539064	-1323.993408203125	589.3801879882815	13.50110244750977	-1392.630737304688	880.8444213867192	135.1156158447266	-1404.740356445313	855.744995117188	151.3951263427735	-1402.4912109375	852.8827514648442	202.0618286132814	-1390.720703125	872.8715820312505	219.9030151367189	-1372.076293945313	1018.624877929688	155.9896392822266	
2	0.145	-1324.42724609375	1317.887573242188	151.3048248291016	-1388.861328125	1214.417602539063	243.3722381591798	-1206.760864257813	1215.623046875	159.0391082763672	-1151.899291992188	1030.955078125	161.3978729248047	-1185.257934570313	838.6021118164067	271.4663696289064	-1181.675659179688	837.6058959960942	43.30974578857423	-1376.395629882813	912.2502441406255	180.2114257812501	-1161.854736328125	554.2319335937502	305.3460693359376	-1110.350463867188	495.8644104003909	287.2376098632814	-1111.3125	555.7971801757815	302.5697021484376	-848.1582031250005	56.576774597168	269.9436950683595	-823.7086791992192	84.14760589599612	223.7089691162111	-1357.13427734375	543.6973266601565	28.73670578002931	-1280.5302734375	555.622741699219	22.77909660339356	-1511.166015625	222.2633666992189	54.14940261840823	-1462.932006835938	233.6894531250001	56.16716003417972	-1609.291381835938	61.5777397155762	115.0621337890626	-1420.1708984375	25.07833099365236	116.7566070556641	-1462.182861328125	12.27001190185548	66.50817871093753	-1475.613525390625	293.040985107422	41.87976837158205	-1030.01025390625	249.8749237060548	284.1926574707032	-992.221801757813	18.97633361816407	203.0433044433595	-987.1185913085942	228.0367736816407	270.3940429687501	-1004.762145996094	304.733856201172	276.4909973144532	-1317.94384765625	588.7062988281252	13.72369956970216	-1385.311889648438	880.1428833007817	135.4834899902344	-1397.419555664063	855.0487670898442	151.9309082031251	-1395.053344726563	852.3933105468755	202.5990753173829	-1383.34521484375	872.3417358398442	220.2337341308595	-1364.804077148438	1017.813415527344	156.1091766357422	
3	0.15	-1317.425170898438	1317.207885742188	151.7931671142579	-1381.799072265625	1213.514526367188	243.7119598388673	-1199.636596679688	1214.987182617188	159.4676513671876	-1144.564208984375	1030.389038085938	161.7027740478516	-1177.776977539063	838.3413085937505	271.731658935547	-1174.460571289063	836.6083374023442	43.49201965332033	-1368.998046875	911.786987304688	180.3979034423829	-1152.825439453125	554.712341308594	305.8247070312501	-1101.3447265625	496.260192871094	287.6397705078126	-1102.247436523438	556.3763427734377	302.4329833984376	-845.6440429687505	52.76868820190433	268.9368896484376	-820.7949218750005	79.89299011230472	222.3987274169923	-1351.22607421875	543.1401977539065	28.93272018432619	-1274.38671875	554.772888183594	23.01275062561036	-1508.212768554688	223.690887451172	54.10685348510745	-1459.841552734375	234.4866333007814	56.21404647827151	-1608.510131835938	64.28815460205081	114.7255477905274	-1419.980346679688	25.06338119506837	116.6415786743165	-1462.184936523438	12.20799922943116	66.51912689208987	-1471.68603515625	293.9590454101564	41.90857696533205	-1023.8671875	249.3583526611329	284.1790161132814	-990.5553588867192	18.37893676757813	203.2018280029298	-981.3800659179692	226.8891601562501	270.102752685547	-997.8669433593755	303.8244018554689	276.3363037109376	-1311.750854492188	588.0574340820315	13.99055576324464	-1377.9296875	879.5338745117192	135.8025360107422	-1390.0361328125	854.4443359375005	152.4245910644532	-1387.574462890625	852.0188598632817	203.0932922363282	-1375.930419921875	871.945678710938	220.5388793945314	-1357.482177734375	1017.095581054688	156.2285614013672	
4	0.155	-1310.395874023438	1316.623413085938	152.2951354980469	-1374.683959960938	1212.71044921875	244.0873870849611	-1192.482543945313	1214.4638671875	159.8939514160157	-1137.185424804688	1029.942260742188	162.0128936767579	-1170.27001953125	838.200561523438	272.0418395996095	-1167.171630859375	835.6677856445317	43.73600006103517	-1361.584594726563	911.4406738281255	180.5276794433594	-1143.71728515625	555.333679199219	306.3803710937501	-1092.35791015625	496.7256164550784	288.0910644531251	-1093.110473632813	557.0386962890627	302.3177795410157	-843.4814453125005	48.82910537719729	268.0458984375001	-818.129272460938	75.48979949951175	221.2061767578126	-1345.181518554688	542.5996704101565	29.15813064575197	-1268.089599609375	553.974792480469	23.31729888916016	-1505.117553710938	225.2373809814454	54.09609603881839	-1456.60888671875	235.3794250488282	56.2780570983887	-1607.599975585938	67.20499420166018	114.416976928711	-1419.780883789063	25.03867340087892	116.5166397094727	-1462.224853515625	12.13828277587891	66.55326080322268	-1467.597900390625	294.9660644531251	41.96643447875978	-1017.891479492188	248.9170379638673	284.1703491210939	-989.1984252929692	18.00632095336915	203.3744964599611	-975.8333129882817	225.7947845458986	269.8423461914064	-991.1216430664067	302.9635620117189	276.2089843750001	-1305.4072265625	587.4378051757815	14.29982280731202	-1370.48779296875	879.0195312500005	136.0736389160157	-1382.59326171875	853.9335937500005	152.8762512207032	-1380.058349609375	851.7601928710942	203.5444946289064	-1368.478637695313	871.6853637695317	220.8209381103517	-1350.11328125	1016.474609375	156.3495330810547	
